<mxfile host="app.diagrams.net" modified="2023-08-25T13:50:47.816Z" agent="Mozilla/5.0 (X11; Linux x86_64; rv:109.0) Gecko/20100101 Firefox/112.0" etag="pAgm0GECamaNCplxh1iD" version="21.6.9" type="github">
  <diagram name="PÃ¡gina-1" id="cIW3n-_m3ojXXyXt9mrm">
    <mxGraphModel dx="1434" dy="718" grid="1" gridSize="10" guides="1" tooltips="1" connect="1" arrows="1" fold="1" page="1" pageScale="1" pageWidth="827" pageHeight="1169" math="0" shadow="0">
      <root>
        <mxCell id="0" />
        <mxCell id="1" parent="0" />
        <mxCell id="dLKK5JIgdNbYdmR_zm8P-2" value="Escola" style="whiteSpace=wrap;html=1;aspect=fixed;" vertex="1" parent="1">
          <mxGeometry x="70" y="60" width="110" height="110" as="geometry" />
        </mxCell>
        <mxCell id="dLKK5JIgdNbYdmR_zm8P-3" value="" style="endArrow=none;html=1;rounded=0;" edge="1" parent="1">
          <mxGeometry width="50" height="50" relative="1" as="geometry">
            <mxPoint x="180" y="114.5" as="sourcePoint" />
            <mxPoint x="260" y="115" as="targetPoint" />
          </mxGeometry>
        </mxCell>
        <mxCell id="dLKK5JIgdNbYdmR_zm8P-5" value="Ter" style="rhombus;whiteSpace=wrap;html=1;" vertex="1" parent="1">
          <mxGeometry x="250" y="75" width="80" height="85" as="geometry" />
        </mxCell>
        <mxCell id="dLKK5JIgdNbYdmR_zm8P-6" value="" style="endArrow=none;html=1;rounded=0;exitX=1;exitY=0.471;exitDx=0;exitDy=0;exitPerimeter=0;" edge="1" parent="1" source="dLKK5JIgdNbYdmR_zm8P-5">
          <mxGeometry width="50" height="50" relative="1" as="geometry">
            <mxPoint x="334" y="114.5" as="sourcePoint" />
            <mxPoint x="414" y="115" as="targetPoint" />
          </mxGeometry>
        </mxCell>
        <mxCell id="dLKK5JIgdNbYdmR_zm8P-8" value="Turma" style="whiteSpace=wrap;html=1;aspect=fixed;" vertex="1" parent="1">
          <mxGeometry x="414" y="60" width="110" height="110" as="geometry" />
        </mxCell>
        <mxCell id="dLKK5JIgdNbYdmR_zm8P-9" value="1" style="text;html=1;align=center;verticalAlign=middle;resizable=0;points=[];autosize=1;strokeColor=none;fillColor=none;" vertex="1" parent="1">
          <mxGeometry x="190" y="78" width="30" height="30" as="geometry" />
        </mxCell>
        <mxCell id="dLKK5JIgdNbYdmR_zm8P-10" value="N" style="text;html=1;align=center;verticalAlign=middle;resizable=0;points=[];autosize=1;strokeColor=none;fillColor=none;" vertex="1" parent="1">
          <mxGeometry x="375" y="78" width="30" height="30" as="geometry" />
        </mxCell>
        <mxCell id="dLKK5JIgdNbYdmR_zm8P-11" value="Professor" style="whiteSpace=wrap;html=1;aspect=fixed;" vertex="1" parent="1">
          <mxGeometry x="650" y="60" width="110" height="110" as="geometry" />
        </mxCell>
        <mxCell id="dLKK5JIgdNbYdmR_zm8P-12" value="Aula" style="whiteSpace=wrap;html=1;aspect=fixed;" vertex="1" parent="1">
          <mxGeometry x="650" y="380" width="110" height="110" as="geometry" />
        </mxCell>
        <mxCell id="dLKK5JIgdNbYdmR_zm8P-13" value="Sala" style="whiteSpace=wrap;html=1;aspect=fixed;" vertex="1" parent="1">
          <mxGeometry x="414" y="380" width="110" height="110" as="geometry" />
        </mxCell>
        <mxCell id="dLKK5JIgdNbYdmR_zm8P-15" value="" style="endArrow=none;html=1;rounded=0;" edge="1" parent="1">
          <mxGeometry width="50" height="50" relative="1" as="geometry">
            <mxPoint x="468.5" y="300" as="sourcePoint" />
            <mxPoint x="468.5" y="380" as="targetPoint" />
          </mxGeometry>
        </mxCell>
        <mxCell id="dLKK5JIgdNbYdmR_zm8P-16" value="Ter" style="rhombus;whiteSpace=wrap;html=1;" vertex="1" parent="1">
          <mxGeometry x="429" y="220" width="80" height="85" as="geometry" />
        </mxCell>
        <mxCell id="dLKK5JIgdNbYdmR_zm8P-17" value="" style="endArrow=none;html=1;rounded=0;entryX=0.5;entryY=0;entryDx=0;entryDy=0;" edge="1" parent="1" target="dLKK5JIgdNbYdmR_zm8P-16">
          <mxGeometry width="50" height="50" relative="1" as="geometry">
            <mxPoint x="470" y="170" as="sourcePoint" />
            <mxPoint x="470" y="210" as="targetPoint" />
          </mxGeometry>
        </mxCell>
        <mxCell id="dLKK5JIgdNbYdmR_zm8P-19" value="Ministra" style="rhombus;whiteSpace=wrap;html=1;" vertex="1" parent="1">
          <mxGeometry x="665" y="220" width="80" height="85" as="geometry" />
        </mxCell>
        <mxCell id="dLKK5JIgdNbYdmR_zm8P-20" value="" style="endArrow=none;html=1;rounded=0;entryX=0.5;entryY=0;entryDx=0;entryDy=0;" edge="1" parent="1">
          <mxGeometry width="50" height="50" relative="1" as="geometry">
            <mxPoint x="705.5" y="170" as="sourcePoint" />
            <mxPoint x="704.5" y="220" as="targetPoint" />
          </mxGeometry>
        </mxCell>
        <mxCell id="dLKK5JIgdNbYdmR_zm8P-21" value="" style="endArrow=none;html=1;rounded=0;" edge="1" parent="1">
          <mxGeometry width="50" height="50" relative="1" as="geometry">
            <mxPoint x="704.5" y="305" as="sourcePoint" />
            <mxPoint x="705" y="380" as="targetPoint" />
          </mxGeometry>
        </mxCell>
        <mxCell id="dLKK5JIgdNbYdmR_zm8P-23" value="N" style="text;html=1;align=center;verticalAlign=middle;resizable=0;points=[];autosize=1;strokeColor=none;fillColor=none;" vertex="1" parent="1">
          <mxGeometry x="475" y="168" width="30" height="30" as="geometry" />
        </mxCell>
        <mxCell id="dLKK5JIgdNbYdmR_zm8P-25" value="1" style="text;html=1;align=center;verticalAlign=middle;resizable=0;points=[];autosize=1;strokeColor=none;fillColor=none;" vertex="1" parent="1">
          <mxGeometry x="475" y="348" width="30" height="30" as="geometry" />
        </mxCell>
        <mxCell id="dLKK5JIgdNbYdmR_zm8P-26" value="" style="endArrow=none;html=1;rounded=0;exitX=1;exitY=1;exitDx=0;exitDy=0;entryX=0;entryY=0.5;entryDx=0;entryDy=0;" edge="1" parent="1" source="dLKK5JIgdNbYdmR_zm8P-8" target="dLKK5JIgdNbYdmR_zm8P-19">
          <mxGeometry width="50" height="50" relative="1" as="geometry">
            <mxPoint x="610" y="260" as="sourcePoint" />
            <mxPoint x="660" y="210" as="targetPoint" />
          </mxGeometry>
        </mxCell>
        <mxCell id="dLKK5JIgdNbYdmR_zm8P-27" value="1" style="text;html=1;align=center;verticalAlign=middle;resizable=0;points=[];autosize=1;strokeColor=none;fillColor=none;" vertex="1" parent="1">
          <mxGeometry x="650" y="230" width="30" height="30" as="geometry" />
        </mxCell>
        <mxCell id="dLKK5JIgdNbYdmR_zm8P-28" value="N" style="text;html=1;align=center;verticalAlign=middle;resizable=0;points=[];autosize=1;strokeColor=none;fillColor=none;" vertex="1" parent="1">
          <mxGeometry x="524" y="150" width="30" height="30" as="geometry" />
        </mxCell>
      </root>
    </mxGraphModel>
  </diagram>
</mxfile>
